<svg width="496" height="547" viewBox="0 0 496 547" fill="none" xmlns="http://www.w3.org/2000/svg">
<mask id="path-1-inside-1_105_112" fill="white">
<path d="M430.829 493.773C446.703 510.808 442.057 533.265 421.537 543.719C409.147 549.913 394.434 547.203 383.98 536.749C363.847 516.229 343.714 495.708 323.968 475.188C307.319 458.152 290.67 440.729 273.634 423.693C263.181 413.24 258.147 401.624 258.922 386.524C260.083 347.806 260.083 308.701 260.858 269.984C261.632 231.653 262.019 74.8457 262.794 36.5151C262.794 17.1562 269.375 7.08932 284.475 2.44318C295.316 -0.654243 312.353 3.60491 314.676 17.1562C316.224 25.6741 318.16 34.5791 318.547 43.097C319.709 63.6175 319.709 202.227 320.096 222.748C320.87 273.468 321.645 323.801 322.419 374.522C322.419 378.006 323.193 382.265 325.129 384.588C338.681 398.914 352.619 412.852 366.17 426.791C387.852 448.86 409.534 470.929 430.829 493.385V493.773Z"/>
</mask>
<path d="M430.829 493.773C446.703 510.808 442.057 533.265 421.537 543.719C409.147 549.913 394.434 547.203 383.98 536.749C363.847 516.229 343.714 495.708 323.968 475.188C307.319 458.152 290.67 440.729 273.634 423.693C263.181 413.24 258.147 401.624 258.922 386.524C260.083 347.806 260.083 308.701 260.858 269.984C261.632 231.653 262.019 74.8457 262.794 36.5151C262.794 17.1562 269.375 7.08932 284.475 2.44318C295.316 -0.654243 312.353 3.60491 314.676 17.1562C316.224 25.6741 318.16 34.5791 318.547 43.097C319.709 63.6175 319.709 202.227 320.096 222.748C320.87 273.468 321.645 323.801 322.419 374.522C322.419 378.006 323.193 382.265 325.129 384.588C338.681 398.914 352.619 412.852 366.17 426.791C387.852 448.86 409.534 470.929 430.829 493.385V493.773Z" fill="url(#paint0_linear_105_112)" stroke="url(#paint1_linear_105_112)" stroke-width="94" mask="url(#path-1-inside-1_105_112)"/>
<mask id="path-2-inside-2_105_112" fill="white">
<path d="M227.948 416.724C203.169 442.277 178.002 467.444 152.836 492.223C139.285 505.774 125.733 518.939 112.182 532.49C108.697 535.974 104.438 539.459 100.567 542.557C85.8538 548.751 68.431 540.233 61.4617 531.715C52.1695 519.713 51.3951 505 63.0105 493.385C75.013 480.608 87.4025 467.831 99.4051 455.441C123.023 431.436 146.641 407.818 169.872 383.813C171.807 381.877 172.969 378.393 172.969 375.682C173.743 342.772 174.13 309.862 175.292 276.952C176.841 230.878 179.164 66.7142 181.1 20.6399C181.1 18.3169 181.487 15.6067 182.648 14.058C190.005 3.60416 200.459 -1.81641 212.074 1.28102C223.689 4.37844 231.82 15.2195 231.82 27.9964C232.982 91.4937 234.143 273.08 234.918 336.578C234.918 358.647 234.918 380.716 234.531 402.785C234.531 407.818 231.433 413.239 227.561 417.111L227.948 416.724Z"/>
</mask>
<path d="M227.948 416.724C203.169 442.277 178.002 467.444 152.836 492.223C139.285 505.774 125.733 518.939 112.182 532.49C108.697 535.974 104.438 539.459 100.567 542.557C85.8538 548.751 68.431 540.233 61.4617 531.715C52.1695 519.713 51.3951 505 63.0105 493.385C75.013 480.608 87.4025 467.831 99.4051 455.441C123.023 431.436 146.641 407.818 169.872 383.813C171.807 381.877 172.969 378.393 172.969 375.682C173.743 342.772 174.13 309.862 175.292 276.952C176.841 230.878 179.164 66.7142 181.1 20.6399C181.1 18.3169 181.487 15.6067 182.648 14.058C190.005 3.60416 200.459 -1.81641 212.074 1.28102C223.689 4.37844 231.82 15.2195 231.82 27.9964C232.982 91.4937 234.143 273.08 234.918 336.578C234.918 358.647 234.918 380.716 234.531 402.785C234.531 407.818 231.433 413.239 227.561 417.111L227.948 416.724Z" fill="url(#paint2_linear_105_112)" stroke="url(#paint3_linear_105_112)" stroke-width="94" mask="url(#path-2-inside-2_105_112)"/>
<mask id="path-3-inside-3_105_112" fill="white">
<path d="M107.923 415.565C90.8872 433.375 74.2386 451.573 57.2027 469.383C54.1053 472.481 50.6206 474.804 47.136 477.514C34.3591 484.87 13.8388 478.675 4.93372 464.737C-2.03549 453.509 -2.42274 438.022 11.5157 424.858C19.6464 417.114 27.3898 409.37 35.5206 402.014C47.1359 391.173 59.1386 379.945 70.7539 369.104C82.3693 358.263 95.1461 348.583 107.536 338.517C119.925 328.063 140.059 335.419 146.254 349.745C152.448 363.683 146.254 374.912 137.349 384.978C128.056 395.432 117.99 405.112 108.698 415.178L107.923 415.565Z"/>
</mask>
<path d="M107.923 415.565C90.8872 433.375 74.2386 451.573 57.2027 469.383C54.1053 472.481 50.6206 474.804 47.136 477.514C34.3591 484.87 13.8388 478.675 4.93372 464.737C-2.03549 453.509 -2.42274 438.022 11.5157 424.858C19.6464 417.114 27.3898 409.37 35.5206 402.014C47.1359 391.173 59.1386 379.945 70.7539 369.104C82.3693 358.263 95.1461 348.583 107.536 338.517C119.925 328.063 140.059 335.419 146.254 349.745C152.448 363.683 146.254 374.912 137.349 384.978C128.056 395.432 117.99 405.112 108.698 415.178L107.923 415.565Z" fill="url(#paint4_linear_105_112)" stroke="url(#paint5_linear_105_112)" stroke-width="94" mask="url(#path-3-inside-3_105_112)"/>
<mask id="path-4-inside-4_105_112" fill="white">
<path d="M485.809 427.949C466.45 408.59 446.704 389.232 426.958 370.26C416.117 359.806 404.889 350.127 392.886 340.834C385.143 334.639 375.076 333.478 367.332 338.511C360.363 343.157 353.007 349.74 351.071 358.645C349.909 365.227 351.071 371.809 351.071 378.004C358.814 386.909 365.784 394.652 372.753 402.396C389.789 420.593 406.825 438.79 424.248 456.988C431.217 464.344 438.186 472.475 446.317 477.895C460.642 487.188 477.291 485.639 488.907 470.152C498.586 457.375 498.199 440.726 486.196 428.724L485.809 427.949ZM380.497 349.352C377.012 348.191 372.753 348.578 365.009 349.352C372.753 348.191 377.012 347.803 380.497 349.352Z"/>
</mask>
<path d="M485.809 427.949C466.45 408.59 446.704 389.232 426.958 370.26C416.117 359.806 404.889 350.127 392.886 340.834C385.143 334.639 375.076 333.478 367.332 338.511C360.363 343.157 353.007 349.74 351.071 358.645C349.909 365.227 351.071 371.809 351.071 378.004C358.814 386.909 365.784 394.652 372.753 402.396C389.789 420.593 406.825 438.79 424.248 456.988C431.217 464.344 438.186 472.475 446.317 477.895C460.642 487.188 477.291 485.639 488.907 470.152C498.586 457.375 498.199 440.726 486.196 428.724L485.809 427.949ZM380.497 349.352C377.012 348.191 372.753 348.578 365.009 349.352C372.753 348.191 377.012 347.803 380.497 349.352Z" fill="url(#paint6_linear_105_112)"/>
<path d="M342.414 342.896C341.959 344.488 341.517 346.148 341.141 347.556C340.743 349.052 340.41 350.296 340.091 351.414L385.282 364.326C385.737 362.734 386.179 361.075 386.555 359.666C386.953 358.171 387.286 356.927 387.605 355.808L342.414 342.896ZM485.809 427.949L527.847 406.93L524.436 400.108L519.043 394.715L485.809 427.949ZM426.958 370.26L394.333 404.093L394.364 404.122L394.395 404.152L426.958 370.26ZM392.886 340.834L363.526 377.535L363.818 377.769L364.114 377.998L392.886 340.834ZM367.332 338.511L341.718 299.104L341.489 299.253L341.261 299.405L367.332 338.511ZM351.071 358.645L305.144 348.66L304.947 349.565L304.786 350.477L351.071 358.645ZM351.071 378.004H304.071V395.58L315.604 408.844L351.071 378.004ZM372.753 402.396L337.818 433.837L338.127 434.18L338.442 434.517L372.753 402.396ZM424.248 456.988L458.367 424.664L458.282 424.574L458.196 424.484L424.248 456.988ZM446.317 477.895L420.246 517.002L420.492 517.166L420.74 517.327L446.317 477.895ZM488.907 470.152L451.443 441.771L451.375 441.861L451.307 441.952L488.907 470.152ZM486.196 428.724L444.158 449.743L447.569 456.565L452.962 461.958L486.196 428.724ZM380.497 349.352L365.634 393.94L399.585 306.403L380.497 349.352ZM365.009 349.352L358.037 302.872L369.686 396.119L365.009 349.352ZM519.043 394.715C499.465 375.137 479.495 355.559 459.521 336.368L394.395 404.152C413.913 422.904 433.436 442.044 452.575 461.183L519.043 394.715ZM459.582 336.427C447.479 324.756 434.961 313.969 421.658 303.67L364.114 377.998C374.817 386.284 384.755 394.856 394.333 404.093L459.582 336.427ZM422.247 304.133C401.692 287.689 369.48 281.059 341.718 299.104L392.947 377.918C380.672 385.897 368.593 381.589 363.526 377.535L422.247 304.133ZM341.261 299.405C332.28 305.392 311.188 320.856 305.144 348.66L396.998 368.629C395.812 374.086 393.297 377.24 392.527 378.11C391.839 378.889 391.848 378.654 393.403 377.618L341.261 299.405ZM304.786 350.477C303.31 358.844 303.486 366.18 303.682 370.572C303.968 376.955 304.071 376.099 304.071 378.004H398.071C398.071 375.086 397.936 372.442 397.831 370.615C397.701 368.337 397.645 367.631 397.588 366.367C397.495 364.273 397.671 365.027 397.356 366.813L304.786 350.477ZM315.604 408.844C323.647 418.092 330.869 426.116 337.818 433.837L407.688 370.954C400.699 363.189 393.982 355.725 386.537 347.163L315.604 408.844ZM338.442 434.517C355.449 452.683 372.664 471.073 390.299 489.492L458.196 424.484C440.985 406.508 424.129 388.503 407.064 370.275L338.442 434.517ZM390.128 489.312C394.431 493.854 406.411 507.778 420.246 517.002L472.388 438.789C469.961 437.171 468.002 434.834 458.367 424.664L390.128 489.312ZM420.74 517.327C435.857 527.132 455.146 533.005 475.911 529.748C497.083 526.427 514.436 514.446 526.507 498.352L451.307 441.952C451.762 441.345 454.983 437.882 461.345 436.884C467.3 435.95 471.103 437.951 471.894 438.464L420.74 517.327ZM526.37 498.533C549.453 468.063 548.921 424.981 519.43 395.49L452.962 461.958C451.175 460.17 449.01 456.545 448.749 451.651C448.5 446.974 450.106 443.535 451.443 441.771L526.37 498.533ZM528.234 407.705L527.847 406.93L443.771 448.968L444.158 449.743L528.234 407.705ZM395.359 304.764C386.502 301.812 378.592 301.534 373.429 301.635C368.691 301.728 363.651 302.254 360.333 302.585L369.686 396.119C371.67 395.921 372.992 395.792 374.064 395.704C375.133 395.616 375.418 395.614 375.271 395.617C375.045 395.622 371.007 395.731 365.634 393.94L395.359 304.764ZM371.981 395.832C373.753 395.566 374.816 395.423 375.517 395.343C376.23 395.262 376.023 395.312 375.271 395.327C373.578 395.36 368.047 395.252 361.408 392.301L399.585 306.403C381.192 298.228 362.077 302.266 358.037 302.872L371.981 395.832Z" fill="url(#paint7_linear_105_112)" mask="url(#path-4-inside-4_105_112)"/>
<defs>
<linearGradient id="paint0_linear_105_112" x1="342.165" y1="616.121" x2="363.46" y2="-160.946" gradientUnits="userSpaceOnUse">
<stop stop-color="#4A4E8B"/>
<stop offset="0.42" stop-color="#323A69"/>
<stop offset="1" stop-color="#15223F"/>
</linearGradient>
<linearGradient id="paint1_linear_105_112" x1="349.586" y1="1.48242" x2="349.586" y2="547.001" gradientUnits="userSpaceOnUse">
<stop/>
<stop offset="1" stop-color="#666666"/>
</linearGradient>
<linearGradient id="paint2_linear_105_112" x1="140.446" y1="608.377" x2="161.741" y2="-166.367" gradientUnits="userSpaceOnUse">
<stop stop-color="#4A4E8B"/>
<stop offset="0.42" stop-color="#323A69"/>
<stop offset="1" stop-color="#15223F"/>
</linearGradient>
<linearGradient id="paint3_linear_105_112" x1="144.655" y1="0.414062" x2="144.655" y2="544.678" gradientUnits="userSpaceOnUse">
<stop/>
<stop offset="1" stop-color="#666666"/>
</linearGradient>
<linearGradient id="paint4_linear_105_112" x1="68.818" y1="592.893" x2="85.8539" y2="-14.5902" gradientUnits="userSpaceOnUse">
<stop stop-color="#4A4E8B"/>
<stop offset="0.42" stop-color="#323A69"/>
<stop offset="1" stop-color="#15223F"/>
</linearGradient>
<linearGradient id="paint5_linear_105_112" x1="74.4824" y1="333.596" x2="74.4824" y2="480.637" gradientUnits="userSpaceOnUse">
<stop/>
<stop offset="1" stop-color="#666666"/>
</linearGradient>
<linearGradient id="paint6_linear_105_112" x1="417.666" y1="602.567" x2="434.314" y2="-4.91609" gradientUnits="userSpaceOnUse">
<stop stop-color="#4A4E8B"/>
<stop offset="0.42" stop-color="#323A69"/>
<stop offset="1" stop-color="#15223F"/>
</linearGradient>
<linearGradient id="paint7_linear_105_112" x1="423.139" y1="335.361" x2="423.139" y2="483.645" gradientUnits="userSpaceOnUse">
<stop/>
<stop offset="1" stop-color="#666666"/>
</linearGradient>
</defs>
</svg>
