<?xml version="1.0" encoding="UTF-8"?>
<svg id="Layer_1" data-name="Layer 1" xmlns="http://www.w3.org/2000/svg" xmlns:xlink="http://www.w3.org/1999/xlink" viewBox='0 0 216 195'>
  <defs>
    <style>
      .cls-1 {
        fill: #2e3135;
      }

      .cls-1, .cls-2, .cls-3, .cls-4, .cls-5, .cls-6, .cls-7, .cls-8, .cls-9, .cls-10, .cls-11, .cls-12, .cls-13, .cls-14, .cls-15, .cls-16, .cls-17, .cls-18, .cls-19, .cls-20, .cls-21, .cls-22, .cls-23, .cls-24, .cls-25, .cls-26, .cls-27, .cls-28, .cls-29, .cls-30, .cls-31, .cls-32, .cls-33 {
        stroke-width: 0px;
      }

      .cls-2 {
        fill: url(#linear-gradient);
      }

      <!-- .cls-3 {
        fill: url(#linear-gradient-29);
      } -->
<!-- 
      .cls-4 {
        fill: url(#linear-gradient-32);
      } -->

      <!-- .cls-5 {
        fill: url(#linear-gradient-30);
      } -->

      <!-- .cls-6 {
        fill: url(#linear-gradient-31);
      } -->

      .cls-7 {
        fill: url(#linear-gradient-28);
      }

      .cls-8 {
        fill: url(#linear-gradient-25);
      }

      .cls-9 {
        fill: url(#linear-gradient-11);
      }

      .cls-10 {
        fill: url(#linear-gradient-12);
      }

      <!-- .cls-11 {
        fill: url(#linear-gradient-13);
      } -->

      .cls-12 {
        fill: url(#linear-gradient-10);
      }

      .cls-13 {
        fill: url(#linear-gradient-17);
      }

      <!-- .cls-14 {
        fill: url(#linear-gradient-16);
      } -->

      .cls-15 {
        fill: url(#linear-gradient-19);
      }

      <!-- .cls-16 {
        fill: url(#linear-gradient-15);
      } -->

      <!-- .cls-17 {
        fill: url(#linear-gradient-23);
      } -->
<!-- 
      .cls-18 {
        fill: url(#linear-gradient-21);
      } -->

      .cls-19 {
        fill: url(#linear-gradient-18);
      }

      <!-- .cls-20 {
        fill: url(#linear-gradient-14);
      } -->

      <!-- .cls-21 {
        fill: url(#linear-gradient-22);
      } -->

      .cls-22 {
        fill: url(#linear-gradient-20);
      }

      .cls-23 {
        fill: url(#linear-gradient-27);
      }
<!-- 
      .cls-24 {
        fill: url(#linear-gradient-24);
      } -->

      .cls-25 {
        fill: url(#linear-gradient-26);
      }

      .cls-26 {
        fill: url(#linear-gradient-4);
      }

      <!-- .cls-27 {
        fill: url(#linear-gradient-2);
      } -->

      <!-- .cls-28 {
        fill: url(#linear-gradient-3);
      } -->

      .cls-29 {
        fill: url(#linear-gradient-8);
      }

      .cls-30 {
        fill: url(#linear-gradient-9);
      }

      <!-- .cls-31 {
        fill: url(#linear-gradient-7);
      } -->x

      .cls-32 {
        fill: url(#linear-gradient-5);
      }

      <!-- .cls-33 {
        fill: url(#linear-gradient-6);
      } -->
    </style>
    <linearGradient id="linear-gradient" x1="104.44" y1="68.36" x2="116.96" y2="100.36" gradientUnits="userSpaceOnUse">
      <stop offset="0" stop-color="#f89b3a"/>
      <stop offset="1" stop-color="#f8ec1e"/>
    </linearGradient>
    <linearGradient id="linear-gradient-2" x1="101.01" y1="71.03" x2="112.98" y2="101.6" xlink:href="#linear-gradient"/>
    <linearGradient id="linear-gradient-3" x1="100.23" y1="72.86" x2="109.82" y2="97.35" xlink:href="#linear-gradient"/>
    <linearGradient id="linear-gradient-4" x1="108.07" y1="69.8" x2="117.66" y2="94.29" xlink:href="#linear-gradient"/>
    <linearGradient id="linear-gradient-5" x1="110.44" y1="116.95" x2="110.99" y2="96.88" gradientUnits="userSpaceOnUse">
      <stop offset="0" stop-color="#4a4e8b"/>
      <stop offset=".42" stop-color="#323a69"/>
      <stop offset="1" stop-color="#15223f"/>
    </linearGradient>
    <linearGradient id="linear-gradient-6" x1="105.23" y1="116.75" x2="105.78" y2="96.74" xlink:href="#linear-gradient-5"/>
    <linearGradient id="linear-gradient-7" x1="103.38" y1="116.35" x2="103.82" y2="100.66" xlink:href="#linear-gradient-5"/>
    <linearGradient id="linear-gradient-8" x1="112.39" y1="116.6" x2="112.82" y2="100.91" xlink:href="#linear-gradient-5"/>
    <linearGradient id="linear-gradient-9" x1="146.3" y1="98.77" x2="50.74" y2="99.77" gradientUnits="userSpaceOnUse">
      <stop offset="0" stop-color="#e7246f"/>
      <stop offset=".54" stop-color="#af1b4c"/>
      <stop offset="1" stop-color="#851532"/>
    </linearGradient>
    <linearGradient id="linear-gradient-10" x1="146.22" y1="93.48" x2="50.75" y2="94.49" xlink:href="#linear-gradient-9"/>
    <linearGradient id="linear-gradient-11" x1="141.98" y1="91.69" x2="67.2" y2="92.47" xlink:href="#linear-gradient-9"/>
    <linearGradient id="linear-gradient-12" x1="142.07" y1="100.7" x2="67.29" y2="101.48" xlink:href="#linear-gradient-9"/>
    <linearGradient id="linear-gradient-13" x1="80.86" y1="99.02" x2="148.09" y2="98.91" gradientUnits="userSpaceOnUse">
      <stop offset="0" stop-color="#1ab3c1"/>
      <stop offset=".65" stop-color="#10666a"/>
      <stop offset="1" stop-color="#0c4040"/>
    </linearGradient>
    <linearGradient id="linear-gradient-14" x1="80.84" y1="93.74" x2="148.09" y2="93.62" xlink:href="#linear-gradient-13"/>
    <linearGradient id="linear-gradient-15" x1="82.66" y1="91.9" x2="135.31" y2="91.82" xlink:href="#linear-gradient-13"/>
    <linearGradient id="linear-gradient-16" x1="82.68" y1="100.91" x2="135.32" y2="100.83" xlink:href="#linear-gradient-13"/>
    <linearGradient id="linear-gradient-17" x1="58.27" y1="34.18" x2="70.8" y2="66.18" gradientTransform="translate(108.08 8.67) rotate(45)" gradientUnits="userSpaceOnUse">
      <stop offset="0" stop-color="#faa732"/>
      <stop offset=".55" stop-color="#d36e2b"/>
      <stop offset="1" stop-color="#b64426"/>
    </linearGradient>
    <linearGradient id="linear-gradient-18" x1="54.85" y1="36.86" x2="66.81" y2="67.42" xlink:href="#linear-gradient-17"/>
    <linearGradient id="linear-gradient-19" x1="54.06" y1="38.69" x2="63.65" y2="63.18" xlink:href="#linear-gradient-17"/>
    <linearGradient id="linear-gradient-20" x1="61.9" y1="35.62" x2="71.49" y2="60.11" xlink:href="#linear-gradient-17"/>
    <linearGradient id="linear-gradient-21" x1="64.27" y1="82.77" x2="64.83" y2="62.7" gradientTransform="translate(108.08 8.67) rotate(45)" gradientUnits="userSpaceOnUse">
      <stop offset="0" stop-color="#074c57"/>
      <stop offset=".05" stop-color="#074955"/>
      <stop offset="1" stop-color="#101f36"/>
    </linearGradient>
    <linearGradient id="linear-gradient-22" x1="59.06" y1="82.57" x2="59.62" y2="62.56" xlink:href="#linear-gradient-21"/>
    <linearGradient id="linear-gradient-23" x1="57.21" y1="82.18" x2="57.65" y2="66.49" xlink:href="#linear-gradient-21"/>
    <linearGradient id="linear-gradient-24" x1="66.22" y1="82.43" x2="66.65" y2="66.74" xlink:href="#linear-gradient-21"/>
    <linearGradient id="linear-gradient-25" x1="100.13" y1="64.59" x2="4.57" y2="65.6" gradientTransform="translate(108.08 8.67) rotate(45)" gradientUnits="userSpaceOnUse">
      <stop offset="0" stop-color="#8a3287"/>
      <stop offset=".55" stop-color="#521f4d"/>
      <stop offset="1" stop-color="#291223"/>
    </linearGradient>
    <linearGradient id="linear-gradient-26" x1="100.05" y1="59.31" x2="4.58" y2="60.31" xlink:href="#linear-gradient-25"/>
    <linearGradient id="linear-gradient-27" x1="95.81" y1="57.51" x2="21.03" y2="58.3" xlink:href="#linear-gradient-25"/>
    <linearGradient id="linear-gradient-28" x1="95.91" y1="66.52" x2="21.12" y2="67.31" xlink:href="#linear-gradient-25"/>
    <linearGradient id="linear-gradient-29" x1="34.7" y1="64.84" x2="101.92" y2="64.73" gradientTransform="translate(108.08 8.67) rotate(45)" gradientUnits="userSpaceOnUse">
      <stop offset="0" stop-color="#3fb149"/>
      <stop offset=".51" stop-color="#2b8039"/>
      <stop offset="1" stop-color="#1b562b"/>
    </linearGradient>
    <linearGradient id="linear-gradient-30" x1="34.67" y1="59.56" x2="101.92" y2="59.45" xlink:href="#linear-gradient-29"/>
    <linearGradient id="linear-gradient-31" x1="36.49" y1="57.73" x2="89.14" y2="57.64" xlink:href="#linear-gradient-29"/>
    <linearGradient id="linear-gradient-32" x1="36.51" y1="66.74" x2="89.15" y2="66.65" xlink:href="#linear-gradient-29"/>
  </defs>
  <g>
    <g>
      <path class="cls-2" d="M112.73,78.96c.41-.44.29-1.02-.24-1.29-.32-.16-.7-.09-.97.18-.52.53-1.04,1.06-1.55,1.59-.43.44-.86.89-1.3,1.33-.27.27-.4.57-.38.96.03,1,.03,2.01.05,3.01.02.99.03,1.98.05,2.97,0,.5.17,3.82.56,3.93.28.08.72-.03.78-.38.04-.22.09-3.5.1-3.73.03-.53.03-1.05.04-1.58.02-1.31.04-2.61.06-3.92,0-.09.02-.2.07-.26.35-.37.71-.73,1.06-1.09.56-.57,1.12-1.14,1.67-1.72Z"/>
      <path class="cls-27" d="M107.49,80.94c-.64-.66-1.29-1.31-1.94-1.95-.35-.35-.7-.69-1.05-1.04-.09-.09-.2-.18-.3-.26-.38-.16-.83.06-1.01.28-.24.31-.26.69.04.99.31.33.63.66.94.98.61.62,1.22,1.23,1.82,1.85.05.05.08.14.08.21.02.85.03,1.7.06,2.55.04,1.19.1,5.43.15,6.62,0,.06.01.13.04.17.19.27.46.41.76.33.3-.08.51-3.41.51-3.74.03-1.64.06-3.28.08-4.92,0-.57,0-1.14-.01-1.71,0-.13-.08-.27-.18-.37Z"/>
      <path class="cls-28" d="M104.39,80.97c-.44-.46-.87-.93-1.31-1.39-.08-.08-.17-.14-.26-.21-.33-.19-.86-.03-1.09.33-.18.29-.19.69.17,1.03.21.2.41.4.62.59.3.28.61.57.91.85.3.28.63.53.95.79.32.27.84.08,1-.29.16-.36,0-.65-.23-.91-.24-.27-.5-.52-.74-.78Z"/>
      <path class="cls-26" d="M114.22,79.58c-.31-.4-.73-.44-1.1-.2-.22.14-.39.35-.57.54-.45.46-.89.93-1.33,1.41-.18.19-.36.4-.56.63,0,.15-.03.33,0,.5.05.24.24.4.42.52.2.13.47.1.66-.06.3-.24.6-.5.88-.76.51-.49,1.01-.99,1.52-1.49.31-.31.33-.74.07-1.07ZM111.03,82.67c-.02-.07-.04-.15-.06-.22.02.07.04.15.06.22.2.03.31.04.4,0-.09.03-.2.02-.4,0Z"/>
    </g>
    <g>
      <g>
        <path class="cls-32" d="M112.73,113.79c.41.44.29,1.02-.24,1.29-.32.16-.7.09-.97-.18-.52-.53-1.04-1.06-1.55-1.59-.43-.44-.86-.89-1.3-1.33-.27-.27-.4-.57-.38-.96.03-1,.03-2.01.05-3.01.02-.99.03-5.04.05-6.03,0-.5.17-.76.56-.88.28-.08.72.03.78.38.04.22.09.45.1.67.03.53.03,4.11.04,4.64.02,1.31.04,2.61.06,3.92,0,.09.02.2.07.26.35.37.71.73,1.06,1.09.56.57,1.12,1.14,1.67,1.72Z"/>
        <path class="cls-33" d="M107.49,111.8c-.64.66-1.29,1.31-1.94,1.95-.35.35-.7.69-1.05,1.04-.09.09-.2.18-.3.26-.38.16-.83-.06-1.01-.28-.24-.31-.26-.69.04-.99.31-.33.63-.66.94-.98.61-.62,1.22-1.23,1.82-1.85.05-.05.08-.14.08-.21.02-.85.03-1.7.06-2.55.04-1.19.1-5.43.15-6.62,0-.06.01-.13.04-.17.19-.27.46-.41.76-.33.3.08.51.36.51.69.03,1.64.06,6.33.08,7.97,0,.57,0,1.14-.01,1.71,0,.13-.08.27-.18.37Z"/>
        <path class="cls-31" d="M104.39,111.77c-.44.46-.87.93-1.31,1.39-.08.08-.17.14-.26.21-.33.19-.86.03-1.09-.33-.18-.29-.19-.69.17-1.03.21-.2.41-.4.62-.59.3-.28.61-.57.91-.85.3-.28.63-.53.95-.79.32-.27.84-.08,1,.29.16.36,0,.65-.23.91-.24.27-.5.52-.74.78Z"/>
      </g>
      <path class="cls-29" d="M114.15,112.09c-.5-.5-1.01-1-1.52-1.49-.28-.27-.57-.52-.88-.76-.2-.16-.46-.19-.66-.06-.18.12-.37.29-.42.52-.03.17,0,.34,0,.5.2.23.38.43.56.63.44.47.88.94,1.33,1.41.18.19.36.4.57.54.37.24.8.2,1.1-.2.25-.33.24-.76-.07-1.07ZM111.43,110.06c-.09-.03-.2-.02-.4,0-.02.07-.04.15-.06.22.02-.07.04-.15.06-.22.2-.03.31-.04.4,0Z"/>
    </g>
    <g>
      <path class="cls-30" d="M125.42,101.1c.44.41,1.02.29,1.29-.24.16-.32.09-.7-.18-.97-.53-.52-1.06-1.04-1.59-1.55-.44-.43-.89-.86-1.33-1.3-.27-.27-.57-.4-.96-.38-1,.03-2.01.03-3.01.05-.99.02-5.04.03-6.03.05-.5,0-.76.17-.88.56-.08.28.03.72.38.78.22.04,3.5.09,3.73.1.53.03,1.05.03,1.58.04,1.31.02,2.61.04,3.92.06.09,0,.2.02.26.07.37.35.73.71,1.09,1.06.57.56,1.14,1.12,1.72,1.67Z"/>
      <path class="cls-12" d="M123.43,95.86c.66-.64,1.31-1.29,1.95-1.94.35-.35.69-.7,1.04-1.05.09-.09.18-.2.26-.3.16-.38-.06-.83-.28-1.01-.31-.24-.69-.26-.99.04-.33.31-.66.63-.98.94-.62.61-1.23,1.22-1.85,1.82-.05.05-.14.08-.21.08-.85.02-1.7.03-2.55.06-1.19.04-5.43.1-6.62.15-.06,0-.13.01-.17.04-.27.19-.41.46-.33.76.08.3.36.51.69.51,1.64.03,6.33.06,7.97.08.57,0,1.14,0,1.71-.01.13,0,.27-.08.37-.18Z"/>
      <path class="cls-9" d="M123.4,92.76c.46-.44.93-.87,1.39-1.31.08-.08.14-.17.21-.26.19-.33.03-.86-.33-1.09-.29-.18-.69-.19-1.03.17-.2.21-.4.41-.59.62-.28.3-.57.61-.85.91-.28.3-.53.63-.79.95-.27.32-.08.84.29,1,.36.16.65,0,.91-.23.27-.24.52-.5.78-.74Z"/>
      <path class="cls-10" d="M124.79,102.6c.4-.31.44-.73.2-1.1-.14-.22-.35-.39-.54-.57-.46-.45-.93-.89-1.41-1.33-.19-.18-.4-.36-.63-.56-.15,0-.33-.03-.5,0-.24.05-.4.24-.52.42-.13.2-.1.47.06.66.24.3.5.6.76.88.49.51.99,1.01,1.49,1.52.31.31.74.33,1.07.07ZM121.7,99.4c.07-.02.15-.04.22-.06-.07.02-.15.04-.22.06-.03.2-.04.31,0,.4-.03-.09-.02-.2,0-.4Z"/>
    </g>
    <g>
      <path class="cls-11" d="M90.58,101.1c-.44.41-1.02.29-1.29-.24-.16-.32-.09-.7.18-.97.53-.52,1.06-1.04,1.59-1.55.44-.43.89-.86,1.33-1.3.27-.27.57-.4.96-.38,1,.03,2.01.03,3.01.05.99.02,5.04.03,6.03.05.5,0,.76.17.88.56.08.28-.03.72-.38.78-.22.04-.45.09-.67.1-.53.03-4.11.03-4.64.04-1.31.02-2.61.04-3.92.06-.09,0-.2.02-.26.07-.37.35-.73.71-1.09,1.06-.57.56-1.14,1.12-1.72,1.67Z"/>
      <path class="cls-20" d="M92.57,95.86c-.66-.64-1.31-1.29-1.95-1.94-.35-.35-.69-.7-1.04-1.05-.09-.09-.18-.2-.26-.3-.16-.38.06-.83.28-1.01.31-.24.69-.26.99.04.33.31.66.63.98.94.62.61,1.23,1.22,1.85,1.82.05.05.14.08.21.08.85.02,1.7.03,2.55.06,1.19.04,5.43.1,6.62.15.06,0,.13.01.17.04.27.19.41.46.33.76-.08.3-.36.51-.69.51-1.64.03-6.33.06-7.97.08-.57,0-1.14,0-1.71-.01-.13,0-.27-.08-.37-.18Z"/>
      <path class="cls-16" d="M92.6,92.76c-.46-.44-.93-.87-1.39-1.31-.08-.08-.14-.17-.21-.26-.19-.33-.03-.86.33-1.09.29-.18.69-.19,1.03.17.2.21.4.41.59.62.28.3.57.61.85.91.28.3.53.63.79.95.27.32.08.84-.29,1-.36.16-.65,0-.91-.23-.27-.24-.52-.5-.78-.74Z"/>
      <path class="cls-14" d="M92.29,102.52c.5-.5,1-1.01,1.49-1.52.27-.28.52-.57.76-.88.16-.2.19-.46.06-.66-.12-.18-.29-.37-.52-.42-.17-.03-.34,0-.5,0-.23.2-.43.38-.63.56-.47.44-.94.88-1.41,1.33-.19.18-.4.36-.54.57-.24.37-.2.8.2,1.1.33.25.76.24,1.07-.07ZM94.31,99.8c.03-.09.02-.2,0-.4-.07-.02-.15-.04-.22-.06.07.02.15.04.22.06.03.2.04.31,0,.4Z"/>
    </g>
    <g>
      <path class="cls-13" d="M123.48,87.4c.6-.02.93-.52.74-1.08-.11-.34-.43-.56-.81-.56-.74,0-1.48.01-2.22.02-.62,0-1.24.02-1.86.02-.38,0-.68.12-.95.41-.69.73-1.4,1.44-2.09,2.16-.69.71-1.38,1.42-2.07,2.14-.35.36-2.58,2.82-2.38,3.18.14.25.53.48.82.28.19-.13,2.54-2.42,2.71-2.57.39-.35.77-.72,1.15-1.09.94-.91,1.87-1.82,2.81-2.73.06-.06.15-.13.23-.13.51-.02,1.01-.01,1.52-.02.8-.01,1.6-.01,2.4-.04Z"/>
      <path class="cls-19" d="M118.37,85.1c.01-.92,0-1.84,0-2.76,0-.49,0-.98-.01-1.48,0-.13-.02-.26-.02-.4-.15-.38-.63-.55-.91-.51-.39.05-.67.3-.68.73-.01.45-.02.91-.03,1.36,0,.87,0,1.73-.02,2.6,0,.07-.04.16-.09.21-.59.62-1.18,1.22-1.76,1.84-.81.87-3.77,3.91-4.58,4.78-.04.04-.08.1-.09.15-.05.32.03.62.3.77.27.16,2.77-2.06,3.01-2.28,1.18-1.14,2.36-2.28,3.54-3.42.41-.4.81-.8,1.2-1.22.09-.09.13-.25.14-.38Z"/>
      <path class="cls-15" d="M116.16,82.93c.02-.64.04-1.28.06-1.92,0-.11-.02-.22-.03-.34-.1-.37-.59-.63-1.01-.54-.33.07-.62.36-.61.84,0,.28,0,.57.02.85.01.42.03.83.05,1.25.01.41.07.82.11,1.23.04.41.53.65.92.5.36-.14.46-.46.48-.81.02-.36.02-.72.03-1.08Z"/>
      <path class="cls-22" d="M124.1,88.9c.07-.5-.2-.83-.63-.92-.25-.05-.52-.03-.78-.02-.64.01-1.29.03-1.93.05-.27,0-.53.03-.84.05-.11.11-.25.22-.35.36-.13.2-.12.46-.07.67.05.24.26.4.51.43.38.05.77.07,1.16.08.71.02,1.42.01,2.13.02.44,0,.76-.29.81-.71ZM119.65,88.83c.04-.07.08-.13.12-.2-.04.07-.08.13-.12.2.12.16.19.25.28.29-.08-.04-.15-.12-.28-.29Z"/>
    </g>
    <g>
      <path class="cls-18" d="M98.85,112.03c-.02.6-.52.93-1.08.74-.34-.11-.56-.43-.56-.81,0-.74.01-1.48.02-2.22,0-.62.02-1.24.02-1.86,0-.38.12-.68.41-.95.73-.69,1.44-1.4,2.16-2.09.71-.69,3.59-3.54,4.3-4.23.36-.35.66-.42,1.02-.22.25.14.48.53.28.82-.13.19-.25.38-.41.55-.35.39-2.88,2.93-3.25,3.31-.91.94-1.82,1.87-2.73,2.81-.06.06-.13.15-.13.23-.02.51-.01,1.01-.02,1.52-.01.8-.01,1.6-.04,2.4Z"/>
      <path class="cls-21" d="M96.55,106.92c-.92.01-1.84,0-2.76,0-.49,0-.98,0-1.48-.01-.13,0-.26-.02-.4-.02-.38-.15-.55-.63-.51-.91.05-.39.3-.67.73-.68.45-.01.91-.02,1.36-.03.87,0,1.73,0,2.6-.02.07,0,.16-.04.21-.09.62-.59,1.22-1.18,1.84-1.76.87-.81,3.91-3.77,4.78-4.58.04-.04.1-.08.15-.09.32-.05.62.03.77.3.16.27.11.61-.12.85-1.14,1.18-4.44,4.52-5.58,5.7-.4.41-.8.81-1.22,1.2-.09.09-.25.13-.38.14Z"/>
      <path class="cls-17" d="M94.38,104.71c-.64.02-1.28.04-1.92.06-.11,0-.22-.02-.34-.03-.37-.1-.63-.59-.54-1.01.07-.33.36-.62.84-.61.28,0,.57,0,.85.02.42.01.83.03,1.25.05.41.01.82.07,1.23.11.41.04.65.53.5.92-.14.36-.46.46-.81.48-.36.02-.72.02-1.08.03Z"/>
      <path class="cls-24" d="M101.06,111.83c0-.71,0-1.42-.02-2.13,0-.39-.03-.78-.08-1.16-.03-.25-.19-.46-.43-.51-.21-.04-.47-.06-.67.07-.14.09-.25.24-.36.35-.02.31-.04.57-.05.84-.02.64-.04,1.29-.05,1.93,0,.26-.03.53.02.78.09.43.42.7.92.63.41-.06.71-.37.71-.81ZM100.57,108.47c-.04-.08-.12-.15-.29-.28-.07.04-.13.08-.2.12.07-.04.13-.08.2-.12.16.12.25.19.29.28Z"/>
    </g>
    <g>
      <path class="cls-8" d="M116.79,112.03c.02.6.52.93,1.08.74.34-.11.56-.43.56-.81,0-.74-.01-1.48-.02-2.22,0-.62-.02-1.24-.02-1.86,0-.38-.12-.68-.41-.95-.73-.69-1.44-1.4-2.16-2.09-.71-.69-3.59-3.54-4.3-4.23-.36-.35-.66-.42-1.02-.22-.25.14-.48.53-.28.82.13.19,2.42,2.54,2.57,2.71.35.39.72.77,1.09,1.15.91.94,1.82,1.87,2.73,2.81.06.06.13.15.13.23.02.51.01,1.01.02,1.52.01.8.01,1.6.04,2.4Z"/>
      <path class="cls-25" d="M119.1,106.92c.92.01,1.84,0,2.76,0,.49,0,.98,0,1.48-.01.13,0,.26-.02.4-.02.38-.15.55-.63.51-.91-.05-.39-.3-.67-.73-.68-.45-.01-.91-.02-1.36-.03-.87,0-1.73,0-2.6-.02-.07,0-.16-.04-.21-.09-.62-.59-1.22-1.18-1.84-1.76-.87-.81-3.91-3.77-4.78-4.58-.04-.04-.1-.08-.15-.09-.32-.05-.62.03-.77.3-.16.27-.11.61.12.85,1.14,1.18,4.44,4.52,5.58,5.7.4.41.8.81,1.22,1.2.09.09.25.13.38.14Z"/>
      <path class="cls-23" d="M121.26,104.71c.64.02,1.28.04,1.92.06.11,0,.22-.02.34-.03.37-.1.63-.59.54-1.01-.07-.33-.36-.62-.84-.61-.28,0-.57,0-.85.02-.42.01-.83.03-1.25.05-.41.01-.82.07-1.23.11-.41.04-.65.53-.5.92.14.36.46.46.81.48.36.02.72.02,1.08.03Z"/>
      <path class="cls-7" d="M115.29,112.64c.5.07.83-.2.92-.63.05-.25.03-.52.02-.78-.01-.64-.03-1.29-.05-1.93,0-.27-.03-.53-.05-.84-.11-.11-.22-.25-.36-.35-.2-.13-.46-.12-.67-.07-.24.05-.4.26-.43.51-.05.38-.07.77-.08,1.16-.02.71-.01,1.42-.02,2.13,0,.44.29.76.71.81ZM115.37,108.2c.07.04.13.08.2.12-.07-.04-.13-.08-.2-.12-.16.12-.25.19-.29.28.04-.08.12-.15.29-.28Z"/>
    </g>
    <g>
      <path class="cls-3" d="M92.16,87.4c-.6-.02-.93-.52-.74-1.08.11-.34.43-.56.81-.56.74,0,1.48.01,2.22.02.62,0,1.24.02,1.86.02.38,0,.68.12.95.41.69.73,1.4,1.44,2.09,2.16.69.71,3.54,3.59,4.23,4.3.35.36.42.66.22,1.02-.14.25-.53.48-.82.28-.19-.13-.38-.25-.55-.41-.39-.35-2.93-2.88-3.31-3.25-.94-.91-1.87-1.82-2.81-2.73-.06-.06-.15-.13-.23-.13-.51-.02-1.01-.01-1.52-.02-.8-.01-1.6-.01-2.4-.04Z"/>
      <path class="cls-5" d="M97.27,85.1c-.01-.92,0-1.84,0-2.76,0-.49,0-.98.01-1.48,0-.13.02-.26.02-.4.15-.38.63-.55.91-.51.39.05.67.3.68.73.01.45.02.91.03,1.36,0,.87,0,1.73.02,2.6,0,.07.04.16.09.21.59.62,1.18,1.22,1.76,1.84.81.87,3.77,3.91,4.58,4.78.04.04.08.1.09.15.05.32-.03.62-.3.77-.27.16-.61.11-.85-.12-1.18-1.14-4.52-4.44-5.7-5.58-.41-.4-.81-.8-1.2-1.22-.09-.09-.13-.25-.14-.38Z"/>
      <path class="cls-6" d="M99.49,82.93c-.02-.64-.04-1.28-.06-1.92,0-.11.02-.22.03-.34.1-.37.59-.63,1.01-.54.33.07.62.36.61.84,0,.28,0,.57-.02.85-.01.42-.03.83-.05,1.25-.01.41-.07.82-.11,1.23-.04.41-.53.65-.92.5-.36-.14-.46-.46-.48-.81-.02-.36-.02-.72-.03-1.08Z"/>
      <path class="cls-4" d="M92.36,89.61c.71,0,1.42,0,2.13-.02.39,0,.78-.03,1.16-.08.25-.03.46-.19.51-.43.04-.21.06-.47-.07-.67-.09-.14-.24-.25-.35-.36-.31-.02-.57-.04-.84-.05-.64-.02-1.29-.04-1.93-.05-.26,0-.53-.03-.78.02-.43.09-.7.42-.63.92.06.41.37.71.81.71ZM95.72,89.12c.08-.04.15-.12.28-.29-.04-.07-.08-.13-.12-.2.04.07.08.13.12.2-.12.16-.19.25-.28.29Z"/>
    </g>
  </g>  

</svg>